<svg xmlns="http://www.w3.org/2000/svg" xmlns:xlink="http://www.w3.org/1999/xlink" version="1.1" width="16" height="16" enable-background="new -399.5 200.5 16 16" xml:space="preserve"><rect id="backgroundrect" width="100%" height="100%" x="0" y="0" fill="none" stroke="none" class="" style=""/>

<g class="currentLayer" style=""><title>Layer 1</title><g id="svg_1" class="">
	<path fill="none" stroke="#f76300" stroke-linejoin="bevel" stroke-miterlimit="10" d="M10.000000238418579,1.999499780654901 h1.6350000000000002 c1.328,0 1.8650000000000002,1.174 1.8650000000000002,2.503 v1.043 c0,1.3290000000000002 0.8820000000000011,2.407 2,2.407 v0.03100000000000006 c-1.118,-0.002000000000000004 -2,1.065 -2,2.396 v1.6030000000000002 c0,1.328 -0.537,2.019 -1.8650000000000002,2.019 h-1.6350000000000002 " id="svg_2"/>
	<path fill="none" stroke="#f76300" stroke-linejoin="bevel" stroke-miterlimit="10" d="M6.000000238418579,13.9994997806549 h-1.135 c-1.328,0 -2.365,-0.6890000000000016 -2.365,-2.018 v-1.604 c0,-1.3290000000000002 0,-2.396 -2,-2.396 v-0.030000000000000058 c2,0 2,-1.078 2,-2.407 v-1.043 c0,-1.3290000000000002 1.037,-2.503 2.365,-2.503 h1.135 " id="svg_3"/>
</g></g></svg>