<?xml version="1.0" encoding="UTF-8"?>
<svg xmlns="http://www.w3.org/2000/svg" xmlns:xlink="http://www.w3.org/1999/xlink" width="128pt" height="128pt" viewBox="0 0 128 128" version="1.1">
<g id="surface1">
<path style="fill:none;stroke-width:1;stroke-linecap:butt;stroke-linejoin:bevel;stroke:rgb(96.862745%,38.823529%,0%);stroke-opacity:1;stroke-miterlimit:10;" d="M 10 1.999512 L 11.634766 1.999512 C 12.962891 1.999512 13.5 3.17334 13.5 4.502441 L 13.5 5.54541 C 13.5 6.874512 14.381836 7.952637 15.5 7.952637 L 15.5 7.983398 C 14.381836 7.981445 13.5 9.04834 13.5 10.379395 L 13.5 11.982422 C 13.5 13.310547 12.962891 14.001465 11.634766 14.001465 L 10 14.001465 " transform="matrix(8,0,0,8,0,0)"/>
<path style="fill:none;stroke-width:1;stroke-linecap:butt;stroke-linejoin:bevel;stroke:rgb(96.862745%,38.823529%,0%);stroke-opacity:1;stroke-miterlimit:10;" d="M 6 13.999512 L 4.865234 13.999512 C 3.537109 13.999512 2.5 13.310547 2.5 11.981445 L 2.5 10.377441 C 2.5 9.04834 2.5 7.981445 0.5 7.981445 L 0.5 7.95166 C 2.5 7.95166 2.5 6.873535 2.5 5.544434 L 2.5 4.501465 C 2.5 3.172363 3.537109 1.998535 4.865234 1.998535 L 6 1.998535 " transform="matrix(8,0,0,8,0,0)"/>
</g>
</svg>
