<?xml version="1.0" encoding="UTF-8"?>
<svg xmlns="http://www.w3.org/2000/svg" xmlns:xlink="http://www.w3.org/1999/xlink" width="32pt" height="32pt" viewBox="0 0 32 32" version="1.1">
<g id="surface1">
<path style="fill:none;stroke-width:1;stroke-linecap:butt;stroke-linejoin:bevel;stroke:rgb(96.862745%,38.823529%,0%);stroke-opacity:1;stroke-miterlimit:10;" d="M 10 2 L 11.634766 2 C 12.962891 2 13.5 3.173828 13.5 4.501953 L 13.5 5.544922 C 13.5 6.875 14.382812 7.953125 15.5 7.953125 L 15.5 7.984375 C 14.382812 7.982422 13.5 9.048828 13.5 10.378906 L 13.5 11.982422 C 13.5 13.310547 12.962891 14.001953 11.634766 14.001953 L 10 14.001953 " transform="matrix(2,0,0,2,0,0)"/>
<path style="fill:none;stroke-width:1;stroke-linecap:butt;stroke-linejoin:bevel;stroke:rgb(96.862745%,38.823529%,0%);stroke-opacity:1;stroke-miterlimit:10;" d="M 6 14 L 4.865234 14 C 3.537109 14 2.5 13.310547 2.5 11.982422 L 2.5 10.376953 C 2.5 9.048828 2.5 7.982422 0.5 7.982422 L 0.5 7.951172 C 2.5 7.951172 2.5 6.873047 2.5 5.544922 L 2.5 4.501953 C 2.5 3.171875 3.537109 1.998047 4.865234 1.998047 L 6 1.998047 " transform="matrix(2,0,0,2,0,0)"/>
</g>
</svg>
